Coordinates
version=1
nRows=33
nColumns=33
inDegrees=yes

Units are S.I. units (second, meters, Newtons, ...)
Angles are in degrees.

endheader
time	ground_thorax_rot_x	ground_thorax_rot_y	ground_thorax_rot_z	ground_thorax_tx	ground_thorax_ty	ground_thorax_tz	clav_prot_r	clav_elev_r	scapula_abduction_r	scapula_elevation_r	scapula_upward_rot_r	scapula_winging_r	shoulder_elv_r	plane_of_elev_r	axial_rot_r	elbow_flexion_r	pro_sup_r	wrist_flex_r	wrist_dev_r	clav_prot_l	clav_elev_l	scapula_abduction_l	scapula_elevation_l	scapula_upward_rot_l	scapula_winging_l	shoulder_elv_l	plane_of_elev_l	axial_rot_l	elbow_flexion_l	pro_sup_l	wrist_flex_l	wrist_dev_l	
4.3900	-3.221887	4.922481	7.344534	-0.090873	1.028982	0.010302	18.308394	-14.095477	44.975664	-14.364538	24.029511	-12.534948	0.030607	-55.408634	125.873494	-31.626885	-135.861764	10.371713	3.820447	27.807195	-10.380083	-42.278912	-5.262560	-22.623760	15.784610	52.911381	2.718609	0.859609	10.728019	10.420063	16.074987	-1.390116	
4.4000	-3.150940	4.911906	7.235553	-0.089937	1.029588	0.010438	18.221719	-14.124513	44.896736	-14.414273	24.112767	-12.457239	-0.136406	-55.664299	125.477152	-31.441424	-135.846294	8.022021	3.924248	27.445406	-10.454450	-41.678819	-5.209416	-22.589561	15.382664	53.092529	2.498749	0.912518	10.907366	10.765846	16.028238	-2.079813	
4.4100	-3.100547	4.896872	7.136442	-0.089171	1.030186	0.010532	18.153703	-14.188585	44.818626	-14.483668	24.158307	-12.363723	-0.210561	-55.909990	125.108159	-31.160468	-136.012779	6.125140	4.088795	27.127365	-10.526421	-41.148950	-5.161737	-22.569245	15.026217	53.283884	2.250398	1.013206	11.127605	11.000357	16.025256	-2.654844	
4.4200	-3.039678	4.875433	7.054647	-0.088505	1.030517	0.010642	18.099853	-14.205002	44.697170	-14.485454	24.101634	-12.299996	-0.315275	-56.172697	124.810454	-31.201439	-136.510618	4.317108	4.393352	26.774515	-10.521405	-40.573743	-5.170800	-22.529989	14.664205	53.423047	1.962174	1.139336	11.500724	11.119965	16.126032	-3.215247	
4.4300	-2.981389	4.851687	6.996346	-0.087998	1.030666	0.010738	18.047583	-14.213316	44.512788	-14.454979	23.946382	-12.228161	-0.407501	-56.444470	124.586326	-31.438801	-137.342133	2.848648	4.775518	26.415857	-10.475106	-39.993608	-5.215551	-22.493927	14.311736	53.541948	1.631870	1.304090	11.993768	11.116067	16.312386	-3.715195	
4.4400	-2.933924	4.827115	6.951740	-0.087658	1.030678	0.010804	17.983061	-14.251924	44.236842	-14.423774	23.685160	-12.108835	-0.467882	-56.732689	124.456112	-31.862480	-138.642462	1.798946	5.203527	26.042985	-10.405247	-39.392272	-5.282116	-22.461983	13.954538	53.673210	1.248750	1.482878	12.604188	10.989401	16.603840	-4.163327	
4.4500	-2.899869	4.806201	6.934401	-0.087485	1.030571	0.010842	17.890237	-14.314926	43.847465	-14.387938	23.321196	-11.933535	-0.516838	-57.018970	124.411411	-32.438703	-140.260666	1.211654	5.576090	25.672092	-10.323056	-38.792432	-5.372050	-22.459277	13.602107	53.819476	0.833070	1.694785	13.313903	10.779934	16.944936	-4.557072	
4.4600	-2.885609	4.791248	6.928726	-0.087464	1.030436	0.010837	17.759616	-14.446379	43.334357	-14.387969	22.864822	-11.664943	-0.535305	-57.313953	124.458108	-33.127818	-142.258710	1.040540	5.858011	25.301246	-10.259549	-38.186760	-5.460986	-22.488711	13.241823	54.019267	0.385145	1.907305	14.093781	10.520601	17.332063	-4.911629	
4.4700	-2.885753	4.781396	6.945663	-0.087574	1.030224	0.010812	17.591490	-14.593472	42.715278	-14.383035	22.336103	-11.343880	-0.573391	-57.590171	124.567150	-33.944092	-144.316984	1.149367	5.995467	24.947424	-10.190444	-37.604620	-5.577813	-22.570562	12.896221	54.239798	-0.054924	2.154529	14.950698	10.269138	17.687731	-5.236417	
4.4800	-2.899454	4.774012	6.971060	-0.087802	1.029969	0.010769	17.396540	-14.758773	42.018024	-14.378709	21.752031	-10.979803	-0.628964	-57.850662	124.718308	-34.880579	-146.393601	1.434182	6.033025	24.611107	-10.122331	-37.046932	-5.714014	-22.698341	12.564317	54.489419	-0.486212	2.425879	15.878730	10.041854	18.011320	-5.539845	
4.4900	-2.925969	4.766183	7.015894	-0.088140	1.029660	0.010718	17.179427	-14.922586	41.256518	-14.359311	21.119905	-10.591631	-0.727909	-58.092360	124.889229	-35.953073	-148.297901	1.753979	6.004550	24.301232	-10.042157	-36.529053	-5.887932	-22.888895	12.257569	54.752626	-0.890967	2.747223	16.886898	9.878123	18.269615	-5.817645	
4.5000	-2.955202	4.758299	7.064201	-0.088568	1.029352	0.010665	16.951223	-15.093281	40.455313	-14.334094	20.451603	-10.184110	-0.867365	-58.336892	125.054785	-37.177770	-150.078001	2.020004	5.972892	24.006001	-9.974545	-36.030718	-6.072109	-23.125914	11.957701	55.044140	-1.286017	3.089187	17.960709	9.780704	18.486417	-6.087975	
4.5100	-2.981210	4.746323	7.123495	-0.089084	1.029032	0.010620	16.721273	-15.235754	39.645225	-14.277455	19.768136	-9.792856	-1.070722	-58.575967	125.179580	-38.536710	-151.567161	2.215688	5.945873	23.731820	-9.907173	-35.564119	-6.279535	-23.415761	11.674649	55.340455	-1.664752	3.473050	19.113948	9.759147	18.634956	-6.352085	
4.5200	-2.995925	4.731899	7.194280	-0.089683	1.028761	0.010596	16.500522	-15.362746	38.841831	-14.199334	19.068368	-9.417223	-1.349180	-58.831379	125.216770	-40.028116	-152.810494	2.372290	5.935557	23.471194	-9.877210	-35.114012	-6.480754	-23.761832	11.389578	55.666804	-2.060416	3.878609	20.348789	9.819629	18.725826	-6.622630	
4.5300	-3.001196	4.712474	7.277723	-0.090346	1.028549	0.010584	16.284949	-15.472439	38.044473	-14.100567	18.360619	-9.056598	-1.704448	-59.103253	125.163731	-41.626136	-153.827301	2.492530	5.934493	23.215775	-9.869582	-34.668837	-6.688164	-24.162169	11.099251	56.007797	-2.467016	4.322558	21.675640	9.959568	18.761338	-6.902276	
4.5400	-2.995971	4.687591	7.374487	-0.091062	1.028439	0.010590	16.077319	-15.583652	37.254271	-13.996405	17.641339	-8.699434	-2.149694	-59.410044	124.987554	-43.328216	-154.684104	2.598825	5.928559	22.957543	-9.899422	-34.214687	-6.891863	-24.622192	10.791214	56.378045	-2.898057	4.800756	23.093413	10.204559	18.744519	-7.195411	
4.5500	-2.981837	4.650510	7.484764	-0.091810	1.028394	0.010605	15.869743	-15.665651	36.474820	-13.866337	16.932327	-8.364627	-2.684031	-59.731931	124.714318	-45.091201	-155.390048	2.708167	5.908071	22.687111	-9.922165	-33.742164	-7.118963	-25.117176	10.471641	56.724202	-3.331844	5.343127	24.594885	10.523375	18.684654	-7.504011	
4.5600	-2.966476	4.599710	7.608610	-0.092583	1.028449	0.010629	15.663044	-15.747660	35.700395	-13.733532	16.224833	-8.030941	-3.317080	-60.085243	124.329714	-46.917162	-156.007902	2.817517	5.861088	22.399517	-9.946331	-33.242745	-7.364399	-25.651412	10.133371	57.066117	-3.782900	5.942343	26.176993	10.952578	18.588063	-7.831781	
4.5700	-2.950693	4.533672	7.737140	-0.093355	1.028567	0.010648	15.444392	-15.804354	34.918349	-13.579201	15.529043	-7.707266	-4.013766	-60.444031	123.904939	-48.762205	-156.630793	2.953138	5.778307	22.084956	-9.929895	-32.705813	-7.645607	-26.183555	9.782024	57.349543	-4.230857	6.606387	27.817822	11.420497	18.488041	-8.178937	
4.5800	-2.932050	4.453265	7.863422	-0.094128	1.028756	0.010670	15.221235	-15.841394	34.138656	-13.407462	14.842813	-7.395004	-4.773307	-60.814042	123.431517	-50.630448	-157.262663	3.123682	5.642272	21.748292	-9.884855	-32.138261	-7.949818	-26.708845	9.419467	57.586774	-4.690268	7.310265	29.508705	11.928634	18.386322	-8.544060	
4.5900	-2.898337	4.359480	7.988622	-0.094903	1.028953	0.010694	14.996622	-15.803744	33.380824	-13.175113	14.184854	-7.137512	-5.579187	-61.172900	122.952101	-52.485157	-157.846624	3.362643	5.442581	21.395845	-9.786341	-31.553572	-8.284285	-27.197463	9.061110	57.724458	-5.153237	8.044775	31.236391	12.392069	18.290232	-8.923237	
4.6000	-2.861976	4.256243	8.111447	-0.095678	1.029248	0.010711	14.781856	-15.787499	32.640422	-12.958721	13.527625	-6.873227	-6.469682	-61.588881	122.389882	-54.357470	-158.477937	3.653591	5.138323	21.023615	-9.690239	-30.938500	-8.615044	-27.679560	8.685948	57.856609	-5.679008	8.741269	33.032323	12.916920	18.209372	-9.324172	
4.6100	-2.815488	4.145191	8.233293	-0.096442	1.029578	0.010715	14.570180	-15.754510	31.917394	-12.728902	12.884994	-6.625529	-7.427484	-62.051409	121.790167	-56.224784	-159.127967	4.010722	4.738777	20.634823	-9.568763	-30.300880	-8.958536	-28.138862	8.305232	57.947378	-6.248992	9.384018	34.884020	13.445590	18.155376	-9.741190	
4.6200	-2.772409	4.027006	8.353867	-0.097177	1.029989	0.010700	14.357987	-15.773878	31.193788	-12.543255	12.243144	-6.342598	-8.501355	-62.612950	121.096220	-58.110933	-159.899938	4.433520	4.203602	20.218998	-9.444864	-29.619279	-9.300607	-28.586329	7.901635	58.058307	-6.900672	9.920934	36.807452	14.076240	18.153304	-10.183344	
4.6300	-2.720856	3.903752	8.482533	-0.097892	1.030383	0.010665	14.137711	-15.779377	30.463868	-12.344341	11.606923	-6.063795	-9.637946	-63.244423	120.400958	-59.997102	-160.722093	4.931495	3.581280	19.790938	-9.283440	-28.920971	-9.667142	-29.012958	7.497242	58.137728	-7.599939	10.347037	38.778069	14.702430	18.200439	-10.638596	
4.6400	-2.667458	3.777400	8.612923	-0.098588	1.030792	0.010613	13.915462	-15.818772	29.720884	-12.166487	10.952221	-5.757545	-10.840512	-63.969485	119.667142	-61.897178	-161.628424	5.514029	2.843569	19.351842	-9.114150	-28.204859	-10.035343	-29.425636	7.085703	58.236053	-8.382615	10.630136	40.805234	15.356963	18.294024	-11.106266	
4.6500	-2.597408	3.648778	8.744394	-0.099274	1.031127	0.010553	13.680553	-15.815003	28.954714	-11.942523	10.283814	-5.468133	-12.022813	-64.735687	119.005286	-63.787780	-162.500694	6.190397	2.053803	18.919444	-8.905614	-27.502710	-10.426307	-29.812427	6.691201	58.295381	-9.202409	10.795355	42.845677	15.882089	18.404978	-11.556661	
4.6600	-2.512450	3.517843	8.871188	-0.099946	1.031406	0.010490	13.433022	-15.784903	28.160148	-11.684626	9.593781	-5.182719	-13.174601	-65.543717	118.401944	-65.662260	-163.330657	6.961786	1.203975	18.494017	-8.672915	-26.813312	-10.827296	-30.174247	6.309940	58.331891	-10.067620	10.856178	44.889352	16.275198	18.518046	-11.982283	
4.6700	-2.406077	3.383083	8.999570	-0.100624	1.031586	0.010429	13.172185	-15.690618	27.336602	-11.357717	8.879802	-4.924833	-14.236307	-66.366471	117.922231	-67.507072	-164.024557	7.809058	0.352935	18.090999	-8.406105	-26.163634	-11.252750	-30.524299	5.956269	58.321392	-10.947100	10.844973	46.906204	16.456347	18.595423	-12.364416	
4.6800	-2.291535	3.247549	9.119332	-0.101286	1.031772	0.010365	12.897242	-15.618088	26.465934	-11.030722	8.118764	-4.634497	-15.246214	-67.241788	117.472378	-69.319589	-164.641742	8.760947	-0.585735	17.695668	-8.152155	-25.524506	-11.662444	-30.864002	5.607389	58.326190	-11.891838	10.752639	48.910817	16.501215	18.626462	-12.705618	
4.6900	-2.170208	3.109878	9.221658	-0.101929	1.031931	0.010304	12.601190	-15.533829	25.553837	-10.682790	7.337356	-4.332681	-16.192615	-68.141395	117.084231	-71.084647	-165.153487	9.795077	-1.570947	17.311731	-7.886570	-24.903310	-12.075820	-31.188511	5.270596	58.321706	-12.859826	10.621525	50.872280	16.403452	18.603159	-13.005429	
4.7000	-2.050533	2.973088	9.310808	-0.102531	1.032119	0.010236	12.272853	-15.482852	24.578778	-10.353113	6.531381	-3.982933	-17.128304	-69.095270	116.694036	-72.779157	-165.613483	10.967917	-2.690134	16.923306	-7.623212	-24.270870	-12.474853	-31.484334	4.930382	58.324969	-13.883191	10.434026	52.797107	16.217810	18.531187	-13.277675	
4.7100	-1.930158	2.832970	9.389885	-0.103116	1.032281	0.010171	11.922882	-15.411506	23.575363	-10.002893	5.729327	-3.630921	-18.038644	-70.068431	116.342438	-74.393220	-165.979843	12.219715	-3.852995	16.543969	-7.335119	-23.652375	-12.890020	-31.765523	4.600302	58.307240	-14.917213	10.227139	54.668862	15.954845	18.409303	-13.535842	
